<?xml version="1.0" encoding="UTF-8" standalone="no"?>
<svg
   width="28"
   height="28"
   version="1.1"
   viewBox="0 0 7.4082 7.4081"
   id="svg4"
   sodipodi:docname="Logo.svg"
   inkscape:version="1.1.2 (0a00cf5339, 2022-02-04)"
   xmlns:inkscape="http://www.inkscape.org/namespaces/inkscape"
   xmlns:sodipodi="http://sodipodi.sourceforge.net/DTD/sodipodi-0.dtd"
   xmlns="http://www.w3.org/2000/svg"
   xmlns:svg="http://www.w3.org/2000/svg">
  <defs
     id="defs8" />
  <sodipodi:namedview
     id="namedview6"
     pagecolor="#505050"
     bordercolor="#ffffff"
     borderopacity="1"
     inkscape:pageshadow="0"
     inkscape:pageopacity="0"
     inkscape:pagecheckerboard="1"
     showgrid="false"
     inkscape:zoom="31.821429"
     inkscape:cx="10.731762"
     inkscape:cy="15.162738"
     inkscape:window-width="2560"
     inkscape:window-height="1048"
     inkscape:window-x="0"
     inkscape:window-y="0"
     inkscape:window-maximized="1"
     inkscape:current-layer="svg4" />
  <path
     d="m 1.3027,0.44141 c -0.2319,0 -0.43411,0.18014 -0.59961,0.4668 -0.1655,0.28666 -0.30056,0.69104 -0.39648,1.1895 -0.19184,0.99681 -0.19184,2.216 0,3.2129 0.095918,0.4984 0.23099,0.90279 0.39648,1.1895 0.16549,0.28671 0.36771,0.4668 0.59961,0.4668 H 7.166 c 0.096961,-0.00816 0.096961,-0.15004 0,-0.1582 -0.1307,0 -0.28866,-0.12334 -0.4375,-0.38672 C 6.57966,6.15861 6.44518,5.7679 6.35155,5.28139 6.16429,4.30834 6.16429,3.10019 6.35155,2.12709 6.445182,1.64053 6.57966,1.24984 6.7285,0.98649 6.87734,0.72312 7.0353,0.59977 7.166,0.59977 c 0.096961,-0.008165 0.096961,-0.15004 0,-0.1582 z m 0,0.1582 H 6.8546 C 6.769918,0.64341 6.69674,0.71899 6.58981,0.9082 6.42805,1.19443 6.2912,1.59922 6.19528,2.0977 c -0.19184,0.99688 -0.19184,2.2161 0,3.2129 0.095918,0.49841 0.23277,0.90322 0.39453,1.1895 0.10693,0.18921 0.12669,0.20174 0.23355,0.30859 H 1.30266 C 1.15545,6.80869 0.99353,6.68493 0.84172,6.42197 0.68991,6.15901 0.55645,5.76787 0.46281,5.28137 0.27555,4.30825 0.27555,3.10017 0.46281,2.12707 0.556447,1.64053 0.68991,1.2494 0.84172,0.98647 0.99353,0.72352 1.15545,0.59975 1.30266,0.59975 Z"
     color="#000000"
     fill="#d7dae0"
     fill-rule="evenodd"
     stroke-linecap="round"
     stroke-linejoin="round"
     style="stroke:#d7dae0;stroke-opacity:1;stroke-width:0.26457857;stroke-miterlimit:4;stroke-dasharray:none"
     id="path2"
     sodipodi:nodetypes="csccssccscsccccccsccccssccccc" />
  <g
     inkscape:groupmode="layer"
     id="layer1"
     inkscape:label="Layer 1"
     sodipodi:insensitive="true">
    <path
       d="m 1.3026999,0.44140999 c -0.2319,0 -0.43411,0.18014 -0.59961,0.4668 C 0.5375899,1.19487 0.4025299,1.59925 0.3066099,2.09771 c -0.19184,0.99681 -0.19184,2.216 0,3.2129 0.095918,0.4984 0.23099,0.90279 0.39648,1.1895 0.16549,0.28671 0.36771,0.4668 0.59961,0.4668 H 7.166 c 0.09696,-0.00816 0.09696,-0.15004 0,-0.1582 -0.1307,0 -0.28866,-0.12334 -0.4375,-0.38672 C 6.57966,6.15861 6.44518,5.7679 6.35155,5.28139 6.16429,4.30834 6.16429,3.10019 6.35155,2.12709 6.44518,1.64053 6.57966,1.24984 6.7285,0.98648999 c 0.14884,-0.26337 0.3068,-0.38672 0.4375,-0.38672 0.09696,-0.008165 0.09696,-0.15004 0,-0.1582 z m 0,0.1582 H 6.8546 c -0.08468,0.0438 -0.15786,0.11938 -0.26479,0.30859 C 6.42805,1.19443 6.2912,1.59922 6.19528,2.0977 6.00344,3.09458 6.00344,4.3138 6.19528,5.3106 6.2912,5.80901 6.42805,6.21382 6.58981,6.5001 6.69674,6.68931 6.7165,6.70184 6.82336,6.80869 H 1.3026599 c -0.14721,0 -0.30913,-0.12376 -0.46094,-0.38672 -0.15181,-0.26296 -0.28527,-0.6541 -0.37891,-1.1406 -0.18726,-0.97312 -0.18726,-2.1812 0,-3.1543 0.093637,-0.48654 0.2271,-0.87767 0.37891,-1.14060001 0.15181,-0.26295 0.31373,-0.38672 0.46094,-0.38672 z m 1.916,1.93360001 c -0.040051,3.719e-4 -0.073551,0.030522 -0.078125,0.070312 -8.539e-4,0.00321 -0.00151,0.00648 -0.00195,0.00977 v 2.1816 c -3.912e-4,0.044386 0.035689,0.080468 0.080075,0.080078 h 0.19531 c 0.044387,3.912e-4 0.080469,-0.035691 0.080078,-0.080078 V 3.826142 H 5.074188 v 0.69531 c -0.05953,1.634e-4 -0.20928,0.00293 -0.37891,-0.00195 -0.06038,-3.885e-4 -0.09907,0.064094 -0.07031,0.11718 0.0227,0.040963 0.05518,0.12984 0.0625,0.16797 0.0072,0.037464 0.03998,0.06453 0.07813,0.064453 0.23528,0 0.38149,0.00284 0.49219,-0.037109 0.0561,-0.021287 0.1067,-0.060398 0.13477,-0.11328 0.02807,-0.052884 0.03516,-0.11243 0.03516,-0.18164 v -1.9238 C 5.428106,2.56965 5.393218,2.533887 5.349588,2.533198 Z m -1.5215,0.066406 c -0.22682,0 -0.42895,0.092565 -0.56641,0.27148 -0.13746,0.17892 -0.21289,0.43656 -0.21289,0.76953 0,0.33297 0.073967,0.59474 0.21094,0.77734 0.13697,0.18261 0.34054,0.28125 0.56836,0.28125 0.22781,0 0.43139,-0.098646 0.56836,-0.28125 0.13697,-0.1826 0.20898,-0.44437 0.20898,-0.77734 0,-0.33297 -0.073479,-0.59061 -0.21094,-0.76953 -0.13746,-0.17892 -0.33958,-0.27148 -0.56641,-0.27148 z m 1.7969,0.28125 h 0.59961 v 0.5957 h -0.59961 z m 0.9511701,0 h 0.62891 v 0.5957 H 4.44527 Z M 1.6972699,2.947272 c 0.11439,0 0.19993,0.038897 0.26953,0.14258 0.069602,0.10368 0.11719,0.28112 0.11719,0.55078 0,0.26834 -0.048786,0.45217 -0.11914,0.56055 -0.070355,0.10838 -0.15495,0.14844 -0.26758,0.14844 -0.11262,0 -0.19727,-0.040065 -0.26758,-0.14844 -0.07031,-0.10837 -0.11914,-0.2922 -0.11914,-0.56055 0,-0.26966 0.047633,-0.4471 0.11719,-0.55078 0.069554,-0.10368 0.15514,-0.14258 0.26953,-0.14258 z"
       color="#000000"
       fill="#d7dae0"
       fill-rule="evenodd"
       stroke-linecap="round"
       stroke-linejoin="round"
       style="-inkscape-stroke:none"
       id="path2-9" />
  </g>
</svg>
