<svg width="28" height="28" version="1.1" viewBox="0 0 7.4082 7.4081" xmlns="http://www.w3.org/2000/svg"><path d="m1.3033 0.52065c-0.37911 0-0.72939 0.60675-0.91895 1.5917-0.18955 0.98493-0.18955 2.1984 0 3.1834 0.18955 0.98493 0.53984 1.5917 0.91895 1.5917h5.8627c-0.35248 0-0.70266-0.60675-0.89221-1.5917-0.18955-0.98493-0.18955-2.1984 0-3.1834s0.53973-1.5917 0.89221-1.5917zm1.9154 2.0918h2.1301v1.9246c0 0.1254-0.030865 0.18683-0.11855 0.2201-0.085104 0.030709-0.22956 0.033368-0.46424 0.033368-0.010315-0.053744-0.043757-0.14073-0.072123-0.19191 0.17794 0.00512 0.34282 0.00248 0.3944 0.00248 0.049001-0.00256 0.064455-0.017971 0.064455-0.064041v-0.79065h-1.738v1.0493h-0.19606v-2.1831zm-1.5216 0.066527c0.41263 0 0.69884 0.3199 0.69884 0.96227s-0.28623 0.9778-0.69884 0.9778c-0.41263 0-0.69884-0.33544-0.69884-0.9778 0-0.64237 0.28623-0.96227 0.69884-0.96227zm1.7177 0.1229v0.75501h0.75812v-0.75501zm0.95148 0v0.75501h0.78651v-0.75501zm-2.6691 0.066527c-0.27079 0-0.46672 0.21492-0.46672 0.77283 0 0.55536 0.19595 0.78838 0.46672 0.78838 0.27079 0 0.46693-0.23302 0.46693-0.78838 0-0.55792-0.19615-0.77283-0.46693-0.77283z" fill="#d7dae0" fill-rule="evenodd" stroke-width=".26458"/></svg>
